<svg width="73" height="24" viewBox="0 0 73 24" fill="none" xmlns="http://www.w3.org/2000/svg">
<rect width="73" height="24" fill="#F5F5F5"/>
<g clip-path="url(#clip0_0_1)">
<rect width="1728" height="2823" transform="translate(-1597 -2556)" fill="#F2F2ED"/>
<path d="M72.0607 13.0607C72.6464 12.4749 72.6464 11.5251 72.0607 10.9393L62.5147 1.3934C61.9289 0.807611 60.9792 0.807611 60.3934 1.3934C59.8076 1.97919 59.8076 2.92893 60.3934 3.51472L68.8787 12L60.3934 20.4853C59.8076 21.0711 59.8076 22.0208 60.3934 22.6066C60.9792 23.1924 61.9289 23.1924 62.5147 22.6066L72.0607 13.0607ZM-6.80094e-10 13.5L71 13.5L71 10.5L6.80094e-10 10.5L-6.80094e-10 13.5Z" fill="black"/>
</g>
<defs>
<clipPath id="clip0_0_1">
<rect width="1728" height="2823" fill="white" transform="translate(-1597 -2556)"/>
</clipPath>
</defs>
</svg>
